<mxfile host="app.diagrams.net" modified="2021-09-07T06:40:52.747Z" agent="5.0 (Macintosh; Intel Mac OS X 10_15_7) AppleWebKit/537.36 (KHTML, like Gecko) Chrome/92.0.4515.159 Safari/537.36" etag="yJSSVW8nylJzhdHPz8pW" version="15.1.0" type="github">
  <diagram id="kgpKYQtTHZ0yAKxKKP6v" name="Page-1">
    <mxGraphModel dx="1181" dy="597" grid="1" gridSize="10" guides="1" tooltips="1" connect="1" arrows="1" fold="1" page="1" pageScale="1" pageWidth="850" pageHeight="1100" math="0" shadow="0">
      <root>
        <mxCell id="0" />
        <mxCell id="1" parent="0" />
        <mxCell id="hlyjIJDPDrHE34PYvthw-2" value="Untitled Layer" parent="0" />
        <mxCell id="hlyjIJDPDrHE34PYvthw-8" value="" style="points=[];perimeter=orthogonalPerimeter;rounded=0;shadow=0;strokeWidth=1;" vertex="1" parent="hlyjIJDPDrHE34PYvthw-2">
          <mxGeometry x="110" y="90" width="10" height="400" as="geometry" />
        </mxCell>
        <mxCell id="hlyjIJDPDrHE34PYvthw-14" value="" style="points=[];perimeter=orthogonalPerimeter;rounded=0;shadow=0;strokeWidth=1;" vertex="1" parent="hlyjIJDPDrHE34PYvthw-2">
          <mxGeometry x="220" y="90" width="10" height="400" as="geometry" />
        </mxCell>
        <mxCell id="hlyjIJDPDrHE34PYvthw-15" value="" style="points=[];perimeter=orthogonalPerimeter;rounded=0;shadow=0;strokeWidth=1;" vertex="1" parent="hlyjIJDPDrHE34PYvthw-2">
          <mxGeometry x="400" y="90" width="10" height="400" as="geometry" />
        </mxCell>
        <mxCell id="hlyjIJDPDrHE34PYvthw-16" value="" style="points=[];perimeter=orthogonalPerimeter;rounded=0;shadow=0;strokeWidth=1;" vertex="1" parent="hlyjIJDPDrHE34PYvthw-2">
          <mxGeometry x="530" y="90" width="10" height="400" as="geometry" />
        </mxCell>
        <mxCell id="hlyjIJDPDrHE34PYvthw-17" value="" style="points=[];perimeter=orthogonalPerimeter;rounded=0;shadow=0;strokeWidth=1;" vertex="1" parent="hlyjIJDPDrHE34PYvthw-2">
          <mxGeometry x="640" y="90" width="10" height="400" as="geometry" />
        </mxCell>
        <mxCell id="hlyjIJDPDrHE34PYvthw-18" value="用户" style="text;html=1;align=center;verticalAlign=middle;resizable=0;points=[];autosize=1;strokeColor=none;fillColor=none;" vertex="1" parent="hlyjIJDPDrHE34PYvthw-2">
          <mxGeometry x="150" y="70" width="40" height="20" as="geometry" />
        </mxCell>
        <mxCell id="hlyjIJDPDrHE34PYvthw-19" value="Native引擎" style="text;html=1;align=center;verticalAlign=middle;resizable=0;points=[];autosize=1;strokeColor=none;fillColor=none;" vertex="1" parent="hlyjIJDPDrHE34PYvthw-2">
          <mxGeometry x="300" y="70" width="70" height="20" as="geometry" />
        </mxCell>
        <mxCell id="hlyjIJDPDrHE34PYvthw-20" value="前端H5" style="text;html=1;align=center;verticalAlign=middle;resizable=0;points=[];autosize=1;strokeColor=none;fillColor=none;" vertex="1" parent="hlyjIJDPDrHE34PYvthw-2">
          <mxGeometry x="450" y="70" width="50" height="20" as="geometry" />
        </mxCell>
        <mxCell id="hlyjIJDPDrHE34PYvthw-21" value="后台&amp;amp;配置" style="text;html=1;align=center;verticalAlign=middle;resizable=0;points=[];autosize=1;strokeColor=none;fillColor=none;" vertex="1" parent="hlyjIJDPDrHE34PYvthw-2">
          <mxGeometry x="560" y="70" width="70" height="20" as="geometry" />
        </mxCell>
        <mxCell id="hlyjIJDPDrHE34PYvthw-22" value="打开QB" style="ellipse;whiteSpace=wrap;html=1;" vertex="1" parent="hlyjIJDPDrHE34PYvthw-2">
          <mxGeometry x="140" y="110" width="60" height="30" as="geometry" />
        </mxCell>
        <mxCell id="hlyjIJDPDrHE34PYvthw-23" value="" style="rounded=1;whiteSpace=wrap;html=1;" vertex="1" parent="hlyjIJDPDrHE34PYvthw-2">
          <mxGeometry x="255" y="100" width="130" height="50" as="geometry" />
        </mxCell>
        <mxCell id="hlyjIJDPDrHE34PYvthw-24" value="QB启动&lt;br style=&quot;font-size: 8px;&quot;&gt;" style="text;html=1;align=center;verticalAlign=middle;resizable=0;points=[];autosize=1;strokeColor=none;fillColor=none;fontSize=8;" vertex="1" parent="hlyjIJDPDrHE34PYvthw-2">
          <mxGeometry x="290" y="104" width="60" height="20" as="geometry" />
        </mxCell>
        <mxCell id="hlyjIJDPDrHE34PYvthw-25" value="预置WebView+BHTML" style="text;html=1;align=center;verticalAlign=middle;resizable=0;points=[];autosize=1;strokeColor=none;fillColor=none;fontSize=8;spacing=-1;" vertex="1" parent="hlyjIJDPDrHE34PYvthw-2">
          <mxGeometry x="250" y="130" width="140" height="10" as="geometry" />
        </mxCell>
      </root>
    </mxGraphModel>
  </diagram>
</mxfile>
